<svg xmlns:xlink="http://www.w3.org/1999/xlink" xmlns="http://www.w3.org/2000/svg" viewBox="0.0 0.0 15344.320209973754 4918.078740157481" fill="none" stroke="none" stroke-linecap="square" stroke-miterlimit="10"><clipPath id="p.0"><path d="m0 0l15344.32 0l0 4918.0786l-15344.32 0l0 -4918.0786z" clip-rule="nonzero"></path></clipPath><g clip-path="url(#p.0)"><path fill="#000000" fill-opacity="0.0" d="m0 0l15344.32 0l0 4918.0786l-15344.32 0z" fill-rule="evenodd"></path><path fill="#000000" fill-opacity="0.0" d="m0 1222.6221l15360.063 0l0 3387.0864l-15360.063 0z" fill-rule="evenodd"></path><path fill="#ffffff" d="m577.08154 3812.7422l-111.75 0l0 -825.40625l111.75 0l0 825.40625zm278.789 -825.40625q14.96875 0 22.171875 3.75q7.203125 3.734375 16.421875 15.25l478.0782 622.09375q-1.734375 -14.984375 -2.3125 -29.09375q-0.578125 -14.109375 -0.578125 -27.359375l0 -584.6406l97.921875 0l0 825.40625l-56.4375 0q-13.25 0 -22.1875 -4.609375q-8.921875 -4.609375 -17.5625 -15.546875l-477.50006 -621.5q1.140625 14.390625 1.71875 28.21875q0.578125 13.828125 0.578125 25.34375l0 588.09375l-97.921875 0l0 -825.40625l57.609375 0l0 0zm1528.6931 412.98438q0 92.734375 -29.375 168.78125q-29.375 76.03125 -82.9375 130.17188q-53.5625 54.140625 -128.45312 83.8125q-74.875 29.65625 -165.89062 29.65625l-308.73438 0l0 -825.40625l308.73438 0q91.015625 0 165.89062 29.671875q74.890625 29.65625 128.45312 84.09375q53.5625 54.421875 82.9375 130.45312q29.375 76.03125 29.375 168.76562zm-114.625 0q0 -76.03125 -20.734375 -135.92188q-20.734375 -59.90625 -58.75 -101.375q-38.015625 -41.484375 -92.15625 -63.359375q-54.140625 -21.890625 -120.390625 -21.890625l-196.40625 0l0 644.53125l196.40625 0q66.25 0 120.390625 -21.875q54.140625 -21.890625 92.15625 -63.078125q38.015625 -41.1875 58.75 -101.09375q20.734375 -59.90625 20.734375 -135.9375zm389.3777 67.96875l0 344.45312l-111.15625 0l0 -825.40625l233.28125 0q78.328125 0 135.34375 15.84375q57.03125 15.828125 94.1875 45.78125q37.15625 29.953125 55.0 72.296875q17.859375 42.328125 17.859375 94.75q0 43.78125 -13.828125 81.796875q-13.8125 38.015625 -40.03125 68.25q-26.203125 30.234375 -63.9375 51.546875q-37.71875 21.3125 -85.53125 32.265625q20.734375 12.09375 36.859375 35.125l240.78125 327.75l-99.078125 0q-30.53125 0 -44.921875 -23.609375l-214.28125 -294.92188q-9.796875 -13.828125 -21.3125 -19.875q-11.515625 -6.046875 -34.5625 -6.046875l-84.671875 0zm0 -81.203125l116.9375 0q48.953125 0 86.109375 -11.8125q37.15625 -11.8125 62.203125 -33.40625q25.0625 -21.609375 37.734375 -51.5625q12.671875 -29.953125 12.671875 -66.234375q0 -73.734375 -48.671875 -111.171875q-48.671875 -37.4375 -144.85938 -37.4375l-122.125 0l0 311.625zm1359.3608 13.234375q0 92.734375 -29.375 170.21875q-29.375 77.46875 -82.953125 133.34375q-53.5625 55.875 -128.73438 86.6875q-75.15625 30.8125 -166.17188 30.8125q-91.0 0 -165.89062 -30.8125q-74.875 -30.8125 -128.4375 -86.6875q-53.5625 -55.875 -82.953125 -133.34375q-29.375 -77.484375 -29.375 -170.21875q0 -92.734375 29.375 -170.20312q29.390625 -77.46875 82.953125 -133.625q53.5625 -56.171875 128.4375 -87.265625q74.890625 -31.109375 165.89062 -31.109375q91.015625 0 166.17188 31.109375q75.171875 31.09375 128.73438 87.265625q53.578125 56.15625 82.953125 133.625q29.375 77.46875 29.375 170.20312zm-114.625 0q0 -76.03125 -20.734375 -136.5q-20.734375 -60.484375 -58.75 -102.234375q-38.015625 -41.765625 -92.15625 -64.234375q-54.140625 -22.46875 -120.96875 -22.46875q-66.234375 0 -120.375 22.46875q-54.140625 22.46875 -92.453125 64.234375q-38.296875 41.75 -59.03125 102.234375q-20.734375 60.46875 -20.734375 136.5q0 76.03125 20.734375 136.23438q20.734375 60.1875 59.03125 101.953125q38.3125 41.75 92.453125 63.9375q54.140625 22.171875 120.375 22.171875q66.828125 0 120.96875 -22.171875q54.140625 -22.1875 92.15625 -63.9375q38.015625 -41.765625 58.75 -101.953125q20.734375 -60.203125 20.734375 -136.23438zm324.87402 -412.98438q14.96875 0 22.171875 3.75q7.203125 3.734375 16.421875 15.25l478.07812 622.09375q-1.734375 -14.984375 -2.3125 -29.09375q-0.578125 -14.109375 -0.578125 -27.359375l0 -584.6406l97.921875 0l0 825.40625l-56.4375 0q-13.25 0 -22.1875 -4.609375q-8.921875 -4.609375 -17.5625 -15.546875l-477.5 -621.5q1.140625 14.390625 1.71875 28.21875q0.578125 13.828125 0.578125 25.34375l0 588.09375l-97.921875 0l0 -825.40625l57.609375 0l0 0zm1321.9121 0l0 91.0l-396.28125 0l0 274.1875l320.82812 0l0 87.546875l-320.82812 0l0 281.65625l396.28125 0l0 91.015625l-508.60938 0l0 -825.40625l508.60938 0z" fill-rule="nonzero"></path><path fill="#ff9900" d="m7644.651 3812.7422l-264.01562 0q-44.4375 0 -73.0 -22.203125q-28.546875 -22.21875 -41.25 -55.21875l-137.07812 -374.45312l-760.3281 0l-137.09375 374.45312q-10.15625 29.1875 -39.984375 53.3125q-29.828125 24.109375 -72.984375 24.109375l-265.29688 0l720.9844 -1835.4531l349.0625 0l720.9844 1835.4531zm-1188.0938 -693.0469l585.15625 0l-223.39062 -610.5469q-15.234375 -40.625 -33.640625 -95.84375q-18.40625 -55.21875 -36.171875 -119.953125q-17.78125 64.734375 -34.921875 120.59375q-17.125 55.84375 -33.625 97.734375l-223.40625 608.0156z" fill-rule="nonzero"></path><path fill="#ffffff" d="m8246.003 3002.6328l0 89.3125l-388.9375 0l0 269.09375l314.89062 0l0 85.9375l-314.89062 0l0 276.4375l388.9375 0l0 89.328125l-499.1875 0l0 -810.1094l499.1875 0zm278.1455 472.04688l0 338.0625l-109.109375 0l0 -810.1094l228.95312 0q76.890625 0 132.85938 15.546875q55.96875 15.546875 92.421875 44.9375q36.46875 29.390625 53.984375 70.953125q17.53125 41.546875 17.53125 92.984375q0 42.96875 -13.5625 80.28125q-13.5625 37.3125 -39.296875 67.0q-25.71875 29.671875 -62.75 50.59375q-37.015625 20.921875 -83.9375 31.65625q20.34375 11.875 36.171875 34.484375l236.3125 321.67188l-97.234375 0q-29.96875 0 -44.09375 -23.171875l-210.3125 -289.45312q-9.609375 -13.5625 -20.921875 -19.5q-11.296875 -5.9375 -33.90625 -5.9375l-83.109375 0zm0 -79.71875l114.765625 0q48.046875 0 84.515625 -11.578125q36.46875 -11.59375 61.046875 -32.796875q24.59375 -21.203125 37.03125 -50.59375q12.4375 -29.40625 12.4375 -65.015625q0 -72.359375 -47.765625 -109.109375q-47.765625 -36.75 -142.1875 -36.75l-119.84375 0l0 305.84375zm1334.169 13.0q0 91.03125 -28.828125 167.0625q-28.828125 76.03125 -81.40625 130.875q-52.578125 54.828125 -126.359375 85.078125q-73.765625 30.25 -163.09375 30.25q-89.3125 0 -162.8125 -30.25q-73.484375 -30.25 -126.0625 -85.078125q-52.578125 -54.84375 -81.40625 -130.875q-28.828125 -76.03125 -28.828125 -167.0625q0 -91.015625 28.828125 -167.04688q28.828125 -76.03125 81.40625 -131.15625q52.578125 -55.125 126.0625 -85.640625q73.5 -30.53125 162.8125 -30.53125q89.328125 0 163.09375 30.53125q73.78125 30.515625 126.359375 85.640625q52.578125 55.125 81.40625 131.15625q28.828125 76.03125 28.828125 167.04688zm-112.5 0q0 -74.609375 -20.359375 -133.96875q-20.34375 -59.359375 -57.65625 -100.34375q-37.3125 -41.0 -90.453125 -63.046875q-53.140625 -22.046875 -118.71875 -22.046875q-65.0 0 -118.140625 22.046875q-53.140625 22.046875 -90.734375 63.046875q-37.59375 40.984375 -57.953125 100.34375q-20.359375 59.359375 -20.359375 133.96875q0 74.625 20.359375 133.70312q20.359375 59.078125 57.953125 100.0625q37.59375 40.984375 90.734375 62.75q53.140625 21.765625 118.140625 21.765625q65.578125 0 118.71875 -21.765625q53.140625 -21.765625 90.453125 -62.75q37.3125 -40.984375 57.65625 -100.0625q20.359375 -59.078125 20.359375 -133.70312z" fill-rule="nonzero"></path><path fill="#ffffff" d="m10644.9375 3168.7734q-8.328125 13.3125 -17.484375 19.96875q-9.140625 6.65625 -23.5625 6.65625q-12.765625 0 -27.46875 -8.03125q-14.6875 -8.046875 -33.28125 -18.03125q-18.578125 -9.984375 -42.421875 -18.03125q-23.84375 -8.046875 -54.359375 -8.046875q-52.6875 0 -78.484375 22.46875q-25.796875 22.46875 -25.796875 60.734375q0 24.40625 15.53125 40.5q15.53125 16.078125 40.765625 27.734375q25.25 11.640625 57.6875 21.34375q32.453125 9.703125 66.28125 21.640625q33.84375 11.921875 66.28125 28.015625q32.453125 16.078125 57.6875 41.046875q25.25 24.953125 40.765625 60.734375q15.53125 35.765625 15.53125 86.234375q0 56.03125 -19.40625 104.84375q-19.40625 48.796875 -56.296875 85.140625q-36.890625 36.328125 -90.96875 57.125q-54.078125 20.796875 -122.859375 20.796875q-37.71875 0 -76.828125 -7.765625q-39.09375 -7.765625 -75.703125 -21.90625q-36.609375 -14.140625 -68.78125 -33.546875q-32.171875 -19.421875 -56.015625 -43.28125l55.46875 -87.640625q6.09375 -9.96875 17.1875 -16.0625q11.09375 -6.109375 23.859375 -6.109375q16.640625 0 33.546875 10.546875q16.921875 10.53125 38.265625 23.28125q21.359375 12.75 49.09375 23.296875q27.734375 10.53125 65.453125 10.53125q51.03125 0 79.3125 -22.453125q28.296875 -22.46875 28.296875 -71.28125q0 -28.28125 -15.53125 -46.03125q-15.53125 -17.75 -40.765625 -29.390625q-25.234375 -11.65625 -57.40625 -20.53125q-32.171875 -8.875 -66.015625 -19.6875q-33.828125 -10.828125 -66.0 -26.625q-32.171875 -15.8125 -57.40625 -41.59375q-25.234375 -25.796875 -40.765625 -64.34375q-15.53125 -38.5625 -15.53125 -95.125q0 -45.484375 18.296875 -88.75q18.3125 -43.265625 53.8125 -77.09375q35.5 -33.84375 87.078125 -54.078125q51.578125 -20.25 118.140625 -20.25q37.171875 0 72.390625 5.828125q35.21875 5.8125 66.828125 17.1875q31.625 11.375 59.078125 27.1875q27.453125 15.796875 49.078125 35.765625l-46.578125 87.078125zm553.55273 336.6875l0 307.28125l-187.48438 0l0 -307.28125l-292.85938 -500.85938l165.29688 0q24.40625 0 38.8125 11.375q14.421875 11.359375 23.296875 29.109375l114.265625 235.17188q13.875 28.296875 25.515625 52.15625q11.65625 23.84375 20.515625 47.140625q8.328125 -23.859375 19.96875 -47.703125q11.65625 -23.859375 24.96875 -51.59375l113.15625 -235.17188q3.328125 -7.203125 9.140625 -14.40625q5.828125 -7.21875 13.3125 -13.046875q7.484375 -5.828125 17.1875 -9.421875q9.71875 -3.609375 21.359375 -3.609375l166.40625 0l-292.85938 500.85938zm798.71875 -336.6875q-8.328125 13.3125 -17.484375 19.96875q-9.140625 6.65625 -23.5625 6.65625q-12.765625 0 -27.46875 -8.03125q-14.6875 -8.046875 -33.28125 -18.03125q-18.578125 -9.984375 -42.421875 -18.03125q-23.84375 -8.046875 -54.359375 -8.046875q-52.6875 0 -78.484375 22.46875q-25.796875 22.46875 -25.796875 60.734375q0 24.40625 15.53125 40.5q15.53125 16.078125 40.765625 27.734375q25.25 11.640625 57.6875 21.34375q32.453125 9.703125 66.28125 21.640625q33.84375 11.921875 66.28125 28.015625q32.453125 16.078125 57.6875 41.046875q25.25 24.953125 40.765625 60.734375q15.53125 35.765625 15.53125 86.234375q0 56.03125 -19.40625 104.84375q-19.40625 48.796875 -56.296875 85.140625q-36.890625 36.328125 -90.96875 57.125q-54.078125 20.796875 -122.859375 20.796875q-37.71875 0 -76.828125 -7.765625q-39.09375 -7.765625 -75.703125 -21.90625q-36.609375 -14.140625 -68.78125 -33.546875q-32.171875 -19.421875 -56.015625 -43.28125l55.46875 -87.640625q6.09375 -9.96875 17.1875 -16.0625q11.09375 -6.109375 23.859375 -6.109375q16.640625 0 33.546875 10.546875q16.921875 10.53125 38.265625 23.28125q21.359375 12.75 49.09375 23.296875q27.734375 10.53125 65.453125 10.53125q51.03125 0 79.3125 -22.453125q28.296875 -22.46875 28.296875 -71.28125q0 -28.28125 -15.53125 -46.03125q-15.53125 -17.75 -40.765625 -29.390625q-25.234375 -11.65625 -57.40625 -20.53125q-32.171875 -8.875 -66.015625 -19.6875q-33.828125 -10.828125 -66.0 -26.625q-32.171875 -15.8125 -57.40625 -41.59375q-25.234375 -25.796875 -40.765625 -64.34375q-15.53125 -38.5625 -15.53125 -95.125q0 -45.484375 18.296875 -88.75q18.3125 -43.265625 53.8125 -77.09375q35.5 -33.84375 87.078125 -54.078125q51.578125 -20.25 118.140625 -20.25q37.171875 0 72.390625 5.828125q35.21875 5.8125 66.828125 17.1875q31.625 11.375 59.078125 27.1875q27.453125 15.796875 49.078125 35.765625l-46.578125 87.078125zm737.69336 -164.17188l0 148.64062l-227.40625 0l0 659.5l-187.48438 0l0 -659.5l-227.40625 0l0 -148.64062l642.2969 0zm597.9248 0l0 144.20312l-331.6875 0l0 188.59375l254.04688 0l0 138.65625l-254.04688 0l0 192.46875l331.6875 0l0 144.21875l-520.2656 0l0 -808.1406l520.2656 0zm519.72363 438.73438q11.09375 21.078125 21.359375 43.828125q10.265625 22.734375 19.6875 46.578125q9.4375 -24.40625 19.96875 -47.421875q10.546875 -23.015625 21.625 -44.640625l207.45312 -408.23438q5.546875 -10.546875 11.359375 -16.359375q5.828125 -5.828125 13.03125 -8.59375q7.21875 -2.78125 16.375 -3.328125q9.15625 -0.5625 21.359375 -0.5625l143.09375 0l0 808.1406l-165.28125 0l0 -464.8125q0 -33.828125 3.328125 -73.21875l-214.10938 415.45312q-9.984375 19.40625 -26.90625 29.390625q-16.90625 9.984375 -38.53125 9.984375l-25.515625 0q-21.640625 0 -38.5625 -9.984375q-16.90625 -9.984375 -26.890625 -29.390625l-215.21875 -416.0q2.21875 19.40625 3.328125 38.546875q1.109375 19.140625 1.109375 35.21875l0 464.8125l-165.28125 0l0 -808.1406l143.09375 0q12.203125 0 21.359375 0.5625q9.15625 0.546875 16.359375 3.328125q7.21875 2.765625 13.03125 8.59375q5.828125 5.8125 11.375 16.359375l208.0 409.89062l0 0zm1078.831 -274.5625q-8.328125 13.3125 -17.484375 19.96875q-9.140625 6.65625 -23.5625 6.65625q-12.765625 0 -27.46875 -8.03125q-14.6875 -8.046875 -33.28125 -18.03125q-18.578125 -9.984375 -42.421875 -18.03125q-23.84375 -8.046875 -54.359375 -8.046875q-52.6875 0 -78.484375 22.46875q-25.796875 22.46875 -25.796875 60.734375q0 24.40625 15.53125 40.5q15.53125 16.078125 40.765625 27.734375q25.25 11.640625 57.6875 21.34375q32.453125 9.703125 66.28125 21.640625q33.84375 11.921875 66.28125 28.015625q32.453125 16.078125 57.6875 41.046875q25.25 24.953125 40.765625 60.734375q15.53125 35.765625 15.53125 86.234375q0 56.03125 -19.40625 104.84375q-19.40625 48.796875 -56.296875 85.140625q-36.890625 36.328125 -90.96875 57.125q-54.078125 20.796875 -122.859375 20.796875q-37.71875 0 -76.828125 -7.765625q-39.09375 -7.765625 -75.703125 -21.90625q-36.609375 -14.140625 -68.78125 -33.546875q-32.171875 -19.421875 -56.015625 -43.28125l55.46875 -87.640625q6.09375 -9.96875 17.1875 -16.0625q11.09375 -6.109375 23.859375 -6.109375q16.640625 0 33.546875 10.546875q16.921875 10.53125 38.265625 23.28125q21.359375 12.75 49.09375 23.296875q27.734375 10.53125 65.453125 10.53125q51.03125 0 79.3125 -22.453125q28.296875 -22.46875 28.296875 -71.28125q0 -28.28125 -15.53125 -46.03125q-15.53125 -17.75 -40.765625 -29.390625q-25.234375 -11.65625 -57.40625 -20.53125q-32.171875 -8.875 -66.015625 -19.6875q-33.828125 -10.828125 -66.0 -26.625q-32.171875 -15.8125 -57.40625 -41.59375q-25.234375 -25.796875 -40.765625 -64.34375q-15.53125 -38.5625 -15.53125 -95.125q0 -45.484375 18.296875 -88.75q18.3125 -43.265625 53.8125 -77.09375q35.5 -33.84375 87.078125 -54.078125q51.578125 -20.25 118.140625 -20.25q37.171875 0 72.390625 5.828125q35.21875 5.8125 66.828125 17.1875q31.625 11.375 59.078125 27.1875q27.453125 15.796875 49.078125 35.765625l-46.578125 87.078125z" fill-rule="nonzero"></path><path fill="#ff9900" d="m6192.1284 820.1871l0 0c0 -73.94098 59.940918 -133.88196 133.88232 -133.88196l855.5117 0c35.507324 0 69.561035 14.105408 94.66846 39.213135c25.10791 25.107727 39.21338 59.161133 39.21338 94.66882l0 535.51166c0 73.94104 -59.940918 133.88196 -133.88184 133.88196l-855.5117 0c-73.94141 0 -133.88232 -59.940918 -133.88232 -133.88196z" fill-rule="evenodd"></path><path stroke="#ff9900" stroke-width="1.0" stroke-linejoin="round" stroke-linecap="butt" d="m6192.1284 820.1871l0 0c0 -73.94098 59.940918 -133.88196 133.88232 -133.88196l855.5117 0c35.507324 0 69.561035 14.105408 94.66846 39.213135c25.10791 25.107727 39.21338 59.161133 39.21338 94.66882l0 535.51166c0 73.94104 -59.940918 133.88196 -133.88184 133.88196l-855.5117 0c-73.94141 0 -133.88232 -59.940918 -133.88232 -133.88196z" fill-rule="evenodd"></path><path fill="#ff9900" d="m6332.5366 579.2984l0 0c0 -37.759033 30.609863 -68.368835 68.36914 -68.368835l704.8369 0c18.132812 0 35.52246 7.203125 48.34424 20.02478c12.821777 12.821655 20.024902 30.211487 20.024902 48.344055l0 273.4671c0 37.759033 -30.609863 68.368774 -68.36914 68.368774l-704.8369 0c-37.759277 0 -68.36914 -30.609741 -68.36914 -68.368774z" fill-rule="evenodd"></path><path stroke="#ff9900" stroke-width="1.0" stroke-linejoin="round" stroke-linecap="butt" d="m6332.5366 579.2984l0 0c0 -37.759033 30.609863 -68.368835 68.36914 -68.368835l704.8369 0c18.132812 0 35.52246 7.203125 48.34424 20.02478c12.821777 12.821655 20.024902 30.211487 20.024902 48.344055l0 273.4671c0 37.759033 -30.609863 68.368774 -68.36914 68.368774l-704.8369 0c-37.759277 0 -68.36914 -30.609741 -68.36914 -68.368774z" fill-rule="evenodd"></path><path fill="#ff9900" d="m9685.64 1051.7565l-2368.5679 49.669678l0 -248.34857l2368.5679 0z" fill-rule="evenodd"></path><path stroke="#ff9900" stroke-width="1.0" stroke-linejoin="round" stroke-linecap="butt" d="m9685.64 1051.7565l-2368.5679 49.669678l0 -248.34857l2368.5679 0z" fill-rule="evenodd"></path><path fill="#ff9900" d="m3823.3215 902.74713l2368.5676 -49.66974l0 248.34863l-2368.5676 0z" fill-rule="evenodd"></path><path stroke="#ff9900" stroke-width="1.0" stroke-linejoin="round" stroke-linecap="butt" d="m3823.3215 902.74713l2368.5676 -49.66974l0 248.34863l-2368.5676 0z" fill-rule="evenodd"></path><path fill="#ff9900" d="m3823.3215 912.83624l66.64575 -266.5827l251.71631 0l66.645996 266.5827z" fill-rule="evenodd"></path><path stroke="#ff9900" stroke-width="1.0" stroke-linejoin="round" stroke-linecap="butt" d="m3823.3215 912.83624l66.64575 -266.5827l251.71631 0l66.645996 266.5827z" fill-rule="evenodd"></path><path fill="#ff9900" d="m3993.3816 510.92957l44.85034 0l0 134.55121l-44.85034 0z" fill-rule="evenodd"></path><path stroke="#ff9900" stroke-width="1.0" stroke-linejoin="round" stroke-linecap="butt" d="m3993.3816 510.92957l44.85034 0l0 134.55121l-44.85034 0z" fill-rule="evenodd"></path><path fill="#ff9900" d="m4015.7173 467.9824l1058.4712 -13.14682l0 65.73407l-1058.4712 0z" fill-rule="evenodd"></path><path stroke="#ff9900" stroke-width="1.0" stroke-linejoin="round" stroke-linecap="butt" d="m4015.7173 467.9824l1058.4712 -13.14682l0 65.73407l-1058.4712 0z" fill-rule="evenodd"></path><path fill="#ff9900" d="m4024.4893 522.11926l-1058.471 13.14679l0 -65.73404l1058.471 0z" fill-rule="evenodd"></path><path stroke="#ff9900" stroke-width="1.0" stroke-linejoin="round" stroke-linecap="butt" d="m4024.4893 522.11926l-1058.471 13.14679l0 -65.73404l1058.471 0z" fill-rule="evenodd"></path><path fill="#ff9900" d="m3863.6067 403.38596l0 0c0 -8.21051 6.656006 -14.866455 14.866455 -14.866455l252.47168 0c3.942871 0 7.7246094 1.5662842 10.512207 4.3542786c2.788086 2.7879944 4.354492 6.569336 4.354492 10.5121765l0 59.46396c0 8.21051 -6.6557617 14.866455 -14.866699 14.866455l-252.47168 0c-8.210449 0 -14.866455 -6.655945 -14.866455 -14.866455z" fill-rule="evenodd"></path><path stroke="#ff9900" stroke-width="1.0" stroke-linejoin="round" stroke-linecap="butt" d="m3863.6067 403.38596l0 0c0 -8.21051 6.656006 -14.866455 14.866455 -14.866455l252.47168 0c3.942871 0 7.7246094 1.5662842 10.512207 4.3542786c2.788086 2.7879944 4.354492 6.569336 4.354492 10.5121765l0 59.46396c0 8.21051 -6.6557617 14.866455 -14.866699 14.866455l-252.47168 0c-8.210449 0 -14.866455 -6.655945 -14.866455 -14.866455z" fill-rule="evenodd"></path><path fill="#ff9900" d="m3953.3545 388.56494l61.984375 -91.71655l61.98413 91.71655z" fill-rule="evenodd"></path><path stroke="#ff9900" stroke-width="1.0" stroke-linejoin="round" stroke-linecap="butt" d="m3953.3545 388.56494l61.984375 -91.71655l61.98413 91.71655z" fill-rule="evenodd"></path><path fill="#ff9900" d="m9301.327 864.3088l66.64551 -266.58264l251.7168 0l66.64551 266.58264z" fill-rule="evenodd"></path><path stroke="#ff9900" stroke-width="1.0" stroke-linejoin="round" stroke-linecap="butt" d="m9301.327 864.3088l66.64551 -266.58264l251.7168 0l66.64551 266.58264z" fill-rule="evenodd"></path><path fill="#ff9900" d="m9471.387 462.4021l44.850586 0l0 134.55115l-44.850586 0z" fill-rule="evenodd"></path><path stroke="#ff9900" stroke-width="1.0" stroke-linejoin="round" stroke-linecap="butt" d="m9471.387 462.4021l44.850586 0l0 134.55115l-44.850586 0z" fill-rule="evenodd"></path><path fill="#ff9900" d="m9493.723 419.45493l1058.4707 -13.14682l0 65.73407l-1058.4707 0z" fill-rule="evenodd"></path><path stroke="#ff9900" stroke-width="1.0" stroke-linejoin="round" stroke-linecap="butt" d="m9493.723 419.45493l1058.4707 -13.14682l0 65.73407l-1058.4707 0z" fill-rule="evenodd"></path><path fill="#ff9900" d="m9502.495 473.59177l-1058.4717 13.14679l0 -65.73404l1058.4717 0z" fill-rule="evenodd"></path><path stroke="#ff9900" stroke-width="1.0" stroke-linejoin="round" stroke-linecap="butt" d="m9502.495 473.59177l-1058.4717 13.14679l0 -65.73404l1058.4717 0z" fill-rule="evenodd"></path><path fill="#ff9900" d="m9341.612 357.76868l0 0c0 -8.21051 6.65625 -14.866425 14.866211 -14.866425l252.47168 0c3.9433594 0 7.7246094 1.5662842 10.512695 4.3542786c2.788086 2.7879944 4.354492 6.569336 4.354492 10.512146l0 59.46399c0 8.21051 -6.65625 14.866425 -14.8671875 14.866425l-252.47168 0c-8.209961 0 -14.866211 -6.6559143 -14.866211 -14.866425z" fill-rule="evenodd"></path><path stroke="#ff9900" stroke-width="1.0" stroke-linejoin="round" stroke-linecap="butt" d="m9341.612 357.76868l0 0c0 -8.21051 6.65625 -14.866425 14.866211 -14.866425l252.47168 0c3.9433594 0 7.7246094 1.5662842 10.512695 4.3542786c2.788086 2.7879944 4.354492 6.569336 4.354492 10.512146l0 59.46399c0 8.21051 -6.65625 14.866425 -14.8671875 14.866425l-252.47168 0c-8.209961 0 -14.866211 -6.6559143 -14.866211 -14.866425z" fill-rule="evenodd"></path><path fill="#ff9900" d="m9430.881 349.35007l61.984375 -91.71652l61.984375 91.71652z" fill-rule="evenodd"></path><path stroke="#ff9900" stroke-width="1.0" stroke-linejoin="round" stroke-linecap="butt" d="m9430.881 349.35007l61.984375 -91.71652l61.984375 91.71652z" fill-rule="evenodd"></path><path fill="#ff9900" d="m9470.908 469.53204l44.850586 0l0 134.55121l-44.850586 0z" fill-rule="evenodd"></path><path stroke="#ff9900" stroke-width="1.0" stroke-linejoin="round" stroke-linecap="butt" d="m9470.908 469.53204l44.850586 0l0 134.55121l-44.850586 0z" fill-rule="evenodd"></path><path fill="#ff9900" d="m6428.735 1504.587l0 0c0 -177.56604 146.08887 -321.51184 326.29883 -321.51184l0 0c86.54004 0 169.53564 33.873535 230.72852 94.1687c61.19287 60.295166 95.5708 142.07288 95.5708 227.34314l0 0c0 177.56604 -146.08887 321.51184 -326.29932 321.51184l0 0c-180.20996 0 -326.29883 -143.9458 -326.29883 -321.51184z" fill-rule="evenodd"></path><path stroke="#ff9900" stroke-width="1.0" stroke-linejoin="round" stroke-linecap="butt" d="m6428.735 1504.587l0 0c0 -177.56604 146.08887 -321.51184 326.29883 -321.51184l0 0c86.54004 0 169.53564 33.873535 230.72852 94.1687c61.19287 60.295166 95.5708 142.07288 95.5708 227.34314l0 0c0 177.56604 -146.08887 321.51184 -326.29932 321.51184l0 0c-180.20996 0 -326.29883 -143.9458 -326.29883 -321.51184z" fill-rule="evenodd"></path><path fill="#ff9900" d="m6692.1177 1615.6166l0 0c0 -37.155273 27.751465 -67.275635 61.984375 -67.275635l0 0c16.438965 0 32.20508 7.0878906 43.82959 19.70459c11.624023 12.616577 18.154785 29.728394 18.154785 47.571045l0 0c0 37.155273 -27.751465 67.27551 -61.984375 67.27551l0 0c-34.23291 0 -61.984375 -30.12024 -61.984375 -67.27551z" fill-rule="evenodd"></path><path stroke="#ff9900" stroke-width="1.0" stroke-linejoin="round" stroke-linecap="butt" d="m6692.1177 1615.6166l0 0c0 -37.155273 27.751465 -67.275635 61.984375 -67.275635l0 0c16.438965 0 32.20508 7.0878906 43.82959 19.70459c11.624023 12.616577 18.154785 29.728394 18.154785 47.571045l0 0c0 37.155273 -27.751465 67.27551 -61.984375 67.27551l0 0c-34.23291 0 -61.984375 -30.12024 -61.984375 -67.27551z" fill-rule="evenodd"></path><path fill="#ff9900" d="m6251.236 1416.5752l41.322754 22.677124l-367.87402 627.4015l-41.322754 -22.677124z" fill-rule="evenodd"></path><path stroke="#ff9900" stroke-width="1.0" stroke-linejoin="round" stroke-linecap="butt" d="m6251.236 1416.5752l41.322754 22.677124l-367.87402 627.4015l-41.322754 -22.677124z" fill-rule="evenodd"></path><path fill="#ff9900" d="m7261.4604 1438.414l41.323242 -22.677246l367.87402 624.37805l-41.323242 22.677002z" fill-rule="evenodd"></path><path stroke="#ff9900" stroke-width="1.0" stroke-linejoin="round" stroke-linecap="butt" d="m7261.4604 1438.414l41.323242 -22.677246l367.87402 624.37805l-41.323242 22.677002z" fill-rule="evenodd"></path><path fill="#000000" fill-opacity="0.0" d="m3672.9192 3894.8455l7586.331 0l0 827.3386l-7586.331 0z" fill-rule="evenodd"></path><path fill="#ffffff" d="m4402.274 4457.4453l-32.0 0q-5.546875 0 -8.96875 -2.765625q-3.40625 -2.78125 -5.125 -7.046875l-28.578125 -73.8125l-137.17188 0l-28.578125 73.8125q-1.5 3.84375 -5.125 6.828125q-3.625 2.984375 -8.96875 2.984375l-31.984375 0l122.234375 -305.70312l42.015625 0l122.25 305.70312zm-200.32812 -113.484375l114.140625 0l-48.0 -124.375q-4.703125 -11.515625 -9.171875 -28.796875q-2.34375 8.75 -4.59375 16.109375q-2.234375 7.359375 -4.375 12.90625l-48.0 124.15625zm427.29834 -192.21875l0 33.703125l-146.76562 0l0 101.546875l118.828125 0l0 32.4375l-118.828125 0l0 104.3125l146.76562 0l0 33.703125l-188.35938 0l0 -305.70312l188.35938 0zm104.96533 178.14062l0 127.5625l-41.171875 0l0 -305.70312l86.390625 0q29.015625 0 50.125 5.875q21.125 5.859375 34.875 16.953125q13.765625 11.09375 20.375 26.78125q6.625 15.671875 6.625 35.078125q0 16.21875 -5.125 30.296875q-5.109375 14.078125 -14.828125 25.28125q-9.703125 11.203125 -23.671875 19.09375q-13.96875 7.890625 -31.6875 11.953125q7.6875 4.46875 13.65625 13.0l89.171875 121.390625l-36.6875 0q-11.3125 0 -16.640625 -8.75l-79.359375 -109.21875q-3.625 -5.125 -7.890625 -7.359375q-4.265625 -2.234375 -12.796875 -2.234375l-31.359375 0zm0 -30.09375l43.296875 0q18.140625 0 31.890625 -4.359375q13.765625 -4.375 23.046875 -12.375q9.28125 -8.0 13.96875 -19.09375q4.703125 -11.09375 4.703125 -24.53125q0 -27.3125 -18.03125 -41.171875q-18.03125 -13.875 -53.65625 -13.875l-45.21875 0l0 115.40625zm278.3916 157.65625l-41.390625 0l0 -305.70312l41.390625 0l0 305.70312zm333.43652 0l-32.0 0q-5.546875 0 -8.96875 -2.765625q-3.40625 -2.78125 -5.125 -7.046875l-28.578125 -73.8125l-137.17188 0l-28.578125 73.8125q-1.5 3.84375 -5.125 6.828125q-3.625 2.984375 -8.96875 2.984375l-31.984375 0l122.234375 -305.70312l42.015625 0l122.25 305.70312zm-200.32812 -113.484375l114.140625 0l-48.0 -124.375q-4.703125 -11.515625 -9.171875 -28.796875q-2.34375 8.75 -4.59375 16.109375q-2.234375 7.359375 -4.375 12.90625l-48.0 124.15625zm280.31396 78.71875l132.26562 0l0 34.765625l-173.64062 0l0 -305.70312l41.375 0l0 270.9375zm305.7085 -79.578125l0 114.34375l-41.172363 0l0 -305.70312l90.23486 0q29.015625 0 50.453125 6.71875q21.4375 6.71875 35.515625 19.09375q14.078125 12.375 21.015625 29.875q6.9375 17.484375 6.9375 39.03125q0 21.328125 -7.46875 39.046875q-7.46875 17.703125 -21.875 30.5q-14.390625 12.796875 -35.734375 19.953125q-21.328125 7.140625 -48.84375 7.140625l-49.0625 0zm0 -32.859375l49.0625 0q17.703125 0 31.25 -4.6875q13.546875 -4.6875 22.71875 -13.109375q9.171875 -8.4375 13.859375 -20.171875q4.703125 -11.734375 4.703125 -25.8125q0 -29.21875 -18.03125 -45.640625q-18.015625 -16.4375 -54.5 -16.4375l-49.0625 0l0 125.859375zm403.6084 -158.5l0 33.703125l-146.76562 0l0 101.546875l118.828125 0l0 32.4375l-118.828125 0l0 104.3125l146.76562 0l0 33.703125l-188.35938 0l0 -305.70312l188.35938 0zm104.96582 178.14062l0 127.5625l-41.171875 0l0 -305.70312l86.390625 0q29.015625 0 50.125 5.875q21.125 5.859375 34.875 16.953125q13.765625 11.09375 20.375 26.78125q6.625 15.671875 6.625 35.078125q0 16.21875 -5.125 30.296875q-5.109375 14.078125 -14.828125 25.28125q-9.703125 11.203125 -23.671875 19.09375q-13.96875 7.890625 -31.6875 11.953125q7.6875 4.46875 13.65625 13.0l89.171875 121.390625l-36.6875 0q-11.3125 0 -16.640625 -8.75l-79.359375 -109.21875q-3.625 -5.125 -7.890625 -7.359375q-4.265625 -2.234375 -12.796875 -2.234375l-31.359375 0zm0 -30.09375l43.296875 0q18.140625 0 31.890625 -4.359375q13.765625 -4.375 23.046875 -12.375q9.28125 -8.0 13.96875 -19.09375q4.703125 -11.09375 4.703125 -24.53125q0 -27.3125 -18.03125 -41.171875q-18.03125 -13.875 -53.65625 -13.875l-45.21875 0l0 115.40625zm385.90674 -100.25q-1.921875 3.1875 -4.0625 4.796875q-2.125 1.59375 -5.53125 1.59375q-3.640625 0 -8.4375 -3.625q-4.796875 -3.625 -12.15625 -8.0q-7.359375 -4.375 -17.703125 -8.0q-10.34375 -3.625 -25.0625 -3.625q-13.875 0 -24.546875 3.734375q-10.65625 3.734375 -17.8125 10.140625q-7.140625 6.390625 -10.765625 15.03125q-3.625 8.640625 -3.625 18.671875q0 12.796875 6.28125 21.21875q6.296875 8.421875 16.640625 14.40625q10.359375 5.96875 23.46875 10.34375q13.125 4.375 26.875 9.0625q13.765625 4.6875 26.890625 10.5625q13.125 5.859375 23.46875 14.828125q10.34375 8.953125 16.640625 21.96875q6.296875 13.015625 6.296875 32.0q0 20.046875 -6.828125 37.65625q-6.828125 17.59375 -19.953125 30.609375q-13.125 13.015625 -32.21875 20.484375q-19.078125 7.453125 -43.40625 7.453125q-29.65625 0 -54.078125 -10.765625q-24.421875 -10.78125 -41.703125 -29.125l11.9375 -19.625q1.71875 -2.34375 4.171875 -3.9375q2.453125 -1.609375 5.4375 -1.609375q4.484375 0 10.234375 4.8125q5.765625 4.796875 14.40625 10.5625q8.640625 5.75 20.90625 10.546875q12.265625 4.796875 29.96875 4.796875q14.71875 0 26.234375 -4.046875q11.53125 -4.046875 19.53125 -11.40625q8.0 -7.375 12.265625 -17.609375q4.265625 -10.234375 4.265625 -22.828125q0 -13.859375 -6.296875 -22.703125q-6.296875 -8.859375 -16.546875 -14.828125q-10.234375 -5.984375 -23.359375 -10.140625q-13.109375 -4.15625 -26.875 -8.53125q-13.75 -4.375 -26.875 -10.125q-13.109375 -5.765625 -23.359375 -14.9375q-10.234375 -9.1875 -16.53125 -22.9375q-6.296875 -13.765625 -6.296875 -34.03125q0 -16.21875 6.296875 -31.359375q6.296875 -15.140625 18.234375 -26.875q11.953125 -11.734375 29.546875 -18.765625q17.609375 -7.046875 40.4375 -7.046875q25.59375 0 46.703125 8.109375q21.125 8.09375 36.921875 23.453125l-10.03125 19.640625zm114.987305 143.5625l0 114.34375l-41.171875 0l0 -305.70312l90.234375 0q29.015625 0 50.453125 6.71875q21.4375 6.71875 35.515625 19.09375q14.078125 12.375 21.015625 29.875q6.9375 17.484375 6.9375 39.03125q0 21.328125 -7.46875 39.046875q-7.46875 17.703125 -21.875 30.5q-14.390625 12.796875 -35.734375 19.953125q-21.328125 7.140625 -48.84375 7.140625l-49.0625 0zm0 -32.859375l49.0625 0q17.703125 0 31.25 -4.6875q13.546875 -4.6875 22.71875 -13.109375q9.171875 -8.4375 13.859375 -20.171875q4.703125 -11.734375 4.703125 -25.8125q0 -29.21875 -18.03125 -45.640625q-18.015625 -16.4375 -54.5 -16.4375l-49.0625 0l0 125.859375zm403.6089 -158.5l0 33.703125l-146.76562 0l0 101.546875l118.828125 0l0 32.4375l-118.828125 0l0 104.3125l146.76562 0l0 33.703125l-188.35938 0l0 -305.70312l188.35938 0zm274.98096 242.5625q3.421875 0 6.1875 2.765625l16.21875 17.703125q-18.78125 21.765625 -45.5625 33.921875q-26.765625 12.15625 -64.515625 12.15625q-33.0625 0 -59.953125 -11.40625q-26.875 -11.40625 -45.859375 -31.984375q-18.984375 -20.59375 -29.4375 -49.390625q-10.453125 -28.8125 -10.453125 -63.375q0 -34.546875 11.1875 -63.34375q11.203125 -28.8125 31.46875 -49.5q20.265625 -20.6875 48.53125 -32.09375q28.265625 -11.421875 62.40625 -11.421875q33.703125 0 58.125 10.453125q24.4375 10.453125 43.421875 28.375l-13.4375 18.984375q-1.5 2.125 -3.421875 3.515625q-1.921875 1.390625 -5.546875 1.390625q-2.765625 0 -5.859375 -2.03125q-3.09375 -2.03125 -7.359375 -5.015625q-4.265625 -2.984375 -10.03125 -6.390625q-5.765625 -3.421875 -13.65625 -6.40625q-7.890625 -2.984375 -18.34375 -5.0q-10.453125 -2.03125 -24.109375 -2.03125q-24.53125 0 -44.90625 8.421875q-20.375 8.421875 -35.09375 24.0q-14.71875 15.5625 -22.9375 37.96875q-8.203125 22.40625 -8.203125 50.125q0 28.59375 8.203125 51.0q8.21875 22.390625 22.40625 37.859375q14.1875 15.46875 33.59375 23.578125q19.421875 8.09375 41.828125 8.09375q13.640625 0 24.515625 -1.59375q10.890625 -1.59375 20.171875 -5.0q9.28125 -3.421875 17.28125 -8.640625q8.0 -5.234375 16.109375 -12.484375q3.625 -3.203125 7.03125 -3.203125zm285.00977 -242.5625l0 34.78125l-98.765625 0l0 270.92188l-41.390625 0l0 -270.92188l-99.203125 0l0 -34.78125l239.35938 0zm92.586426 305.70312l-41.390625 0l0 -305.70312l41.390625 0l0 305.70312zm46.499023 -305.70312l33.0625 0q5.546875 0 8.953125 2.78125q3.421875 2.765625 5.140625 7.03125l86.390625 215.67188q2.984375 7.265625 5.4375 15.796875q2.453125 8.53125 4.796875 17.703125q1.921875 -9.171875 4.15625 -17.703125q2.25 -8.53125 5.234375 -15.796875l85.96875 -215.67188q1.5 -3.625 5.125 -6.71875q3.625 -3.09375 8.953125 -3.09375l33.28125 0l-124.578125 305.70312l-37.328125 0l-124.59375 -305.70312zm513.9077 0l0 33.703125l-146.76562 0l0 101.546875l118.828125 0l0 32.4375l-118.828125 0l0 104.3125l146.76562 0l0 33.703125l-188.35938 0l0 -305.70312l188.35938 0zm187.30957 178.14062l0 127.5625l-41.171875 0l0 -305.70312l86.390625 0q29.015625 0 50.125 5.875q21.125 5.859375 34.875 16.953125q13.765625 11.09375 20.375 26.78125q6.625 15.671875 6.625 35.078125q0 16.21875 -5.125 30.296875q-5.109375 14.078125 -14.828125 25.28125q-9.703125 11.203125 -23.671875 19.09375q-13.96875 7.890625 -31.6875 11.953125q7.6875 4.46875 13.65625 13.0l89.171875 121.390625l-36.6875 0q-11.3125 0 -16.640625 -8.75l-79.359375 -109.21875q-3.625 -5.125 -7.890625 -7.359375q-4.265625 -2.234375 -12.796875 -2.234375l-31.359375 0zm0 -30.09375l43.296875 0q18.140625 0 31.890625 -4.359375q13.765625 -4.375 23.046875 -12.375q9.28125 -8.0 13.96875 -19.09375q4.703125 -11.09375 4.703125 -24.53125q0 -27.3125 -18.03125 -41.171875q-18.03125 -13.875 -53.65625 -13.875l-45.21875 0l0 115.40625zm417.68848 -148.04688l0 33.703125l-146.76562 0l0 101.546875l118.828125 0l0 32.4375l-118.828125 0l0 104.3125l146.76562 0l0 33.703125l-188.35938 0l0 -305.70312l188.35938 0zm324.48145 152.95312q0 34.359375 -10.890625 62.515625q-10.875 28.15625 -30.71875 48.21875q-19.828125 20.046875 -47.5625 31.03125q-27.734375 10.984375 -61.4375 10.984375l-114.34375 0l0 -305.70312l114.34375 0q33.703125 0 61.4375 11.0q27.734375 10.984375 47.5625 31.140625q19.84375 20.15625 30.71875 48.3125q10.890625 28.15625 10.890625 62.5zm-42.453125 0q0 -28.15625 -7.6875 -50.34375q-7.671875 -22.1875 -21.765625 -37.546875q-14.078125 -15.359375 -34.125 -23.453125q-20.046875 -8.109375 -44.578125 -8.109375l-72.75 0l0 238.70312l72.75 0q24.53125 0 44.578125 -8.09375q20.046875 -8.109375 34.125 -23.359375q14.09375 -15.265625 21.765625 -37.4375q7.6875 -22.1875 7.6875 -50.359375zm287.13086 -152.95312l0 33.703125l-146.76562 0l0 101.546875l118.828125 0l0 32.4375l-118.828125 0l0 104.3125l146.76562 0l0 33.703125l-188.35938 0l0 -305.70312l188.35938 0zm247.8877 0l0 33.703125l-146.76562 0l0 106.890625l125.4375 0l0 33.703125l-125.4375 0l0 131.40625l-41.59375 0l0 -305.70312l188.35938 0zm102.19043 305.70312l-41.390625 0l0 -305.70312l41.390625 0l0 305.70312zm103.24902 -305.70312q5.546875 0 8.203125 1.390625q2.671875 1.390625 6.09375 5.65625l177.0625 230.39062q-0.640625 -5.546875 -0.859375 -10.765625q-0.21875 -5.234375 -0.21875 -10.140625l0 -216.53125l36.265625 0l0 305.70312l-20.90625 0q-4.90625 0 -8.21875 -1.703125q-3.296875 -1.703125 -6.5 -5.765625l-176.84375 -230.17188q0.421875 5.328125 0.640625 10.453125q0.21875 5.109375 0.21875 9.375l0 217.8125l-36.265625 0l0 -305.70312l21.328125 0l0 0zm489.583 0l0 33.703125l-146.76562 0l0 101.546875l118.828125 0l0 32.4375l-118.828125 0l0 104.3125l146.76562 0l0 33.703125l-188.35938 0l0 -305.70312l188.35938 0zm324.48145 152.95312q0 34.359375 -10.890625 62.515625q-10.875 28.15625 -30.71875 48.21875q-19.828125 20.046875 -47.5625 31.03125q-27.734375 10.984375 -61.4375 10.984375l-114.34375 0l0 -305.70312l114.34375 0q33.703125 0 61.4375 11.0q27.734375 10.984375 47.5625 31.140625q19.84375 20.15625 30.71875 48.3125q10.890625 28.15625 10.890625 62.5zm-42.453125 0q0 -28.15625 -7.6875 -50.34375q-7.671875 -22.1875 -21.765625 -37.546875q-14.078125 -15.359375 -34.125 -23.453125q-20.046875 -8.109375 -44.578125 -8.109375l-72.75 0l0 238.70312l72.75 0q24.53125 0 44.578125 -8.09375q20.046875 -8.109375 34.125 -23.359375q14.09375 -15.265625 21.765625 -37.4375q7.6875 -22.1875 7.6875 -50.359375z" fill-rule="nonzero"></path></g></svg>